{
  "accessors": [
    {
      "bufferView": 2,
      "componentType": 5126,
      "count": 538,
      "max": [
        0.66053098440170288,
        0.41063499450683594,
        0.58227998018264771
      ],
      "min": [
        -0.66053098440170288,
        -0.41063499450683594,
        -0.66228401660919189
      ],
      "type": "VEC3"
    },
    {
      "bufferView": 2,
      "byteOffset": 6456,
      "componentType": 5126,
      "count": 538,
      "max": [
        0.99823415279388428,
        0.99765825271606445,
        1
      ],
      "min": [
        -0.99823415279388428,
        -0.99765825271606445,
        -1
      ],
      "type": "VEC3"
    },
    {
      "bufferView": 1,
      "componentType": 5126,
      "count": 538,
      "max": [
        0.99283498525619507,
        0.99649101495742798
      ],
      "min": [
        0.0034509999677538872,
        0.5059170126914978
      ],
      "type": "VEC2"
    },
    {
      "bufferView": 0,
      "componentType": 5125,
      "count": 2952,
      "max": [
        537
      ],
      "min": [
        0
      ],
      "type": "SCALAR"
    },
    {
      "bufferView": 2,
      "byteOffset": 12912,
      "componentType": 5126,
      "count": 642,
      "max": [
        1,
        1,
        1
      ],
      "min": [
        -1,
        -1,
        -1
      ],
      "type": "VEC3"
    },
    {
      "bufferView": 2,
      "byteOffset": 20616,
      "componentType": 5126,
      "count": 642,
      "max": [
        1,
        1,
        1
      ],
      "min": [
        -1,
        -1,
        -1
      ],
      "type": "VEC3"
    },
    {
      "bufferView": 1,
      "byteOffset": 4304,
      "componentType": 5126,
      "count": 642,
      "max": [
        0.99679297208786011,
        0.4967930018901825
      ],
      "min": [
        0.0032069999724626541,
        0.0032069999724626541
      ],
      "type": "VEC2"
    },
    {
      "bufferView": 0,
      "byteOffset": 11808,
      "componentType": 5125,
      "count": 3600,
      "max": [
        641
      ],
      "min": [
        0
      ],
      "type": "SCALAR"
    }
  ],
  "asset": {
    "extras": {
      "author": "Azamuki (https://sketchfab.com/Azamuki)",
      "license": "CC-BY-4.0 (http://creativecommons.org/licenses/by/4.0/)",
      "source": "https://sketchfab.com/3d-models/heart-in-love-f39ce19b92e246268f4c501b72ea7d0e",
      "title": "Heart in Love"
    },
    "generator": "Sketchfab-8.46.0",
    "version": "2.0"
  },
  "bufferViews": [
    {
      "buffer": 0,
      "byteLength": 26208,
      "byteOffset": 0,
      "name": "floatBufferViews",
      "target": 34963
    },
    {
      "buffer": 0,
      "byteLength": 9440,
      "byteOffset": 26208,
      "byteStride": 8,
      "name": "floatBufferViews",
      "target": 34962
    },
    {
      "buffer": 0,
      "byteLength": 28320,
      "byteOffset": 35648,
      "byteStride": 12,
      "name": "floatBufferViews",
      "target": 34962
    }
  ],
  "buffers": [
    {
      "byteLength": 63968,
      "uri": "scene.bin"
    }
  ],
  "images": [
    {
      "uri": "textures/Heart_baseColor.png"
    },
    {
      "uri": "textures/Marble_baseColor.png"
    }
  ],
  "materials": [
    {
      "doubleSided": true,
      "name": "Heart",
      "pbrMetallicRoughness": {
        "baseColorFactor": [
          1,
          1,
          1,
          1
        ],
        "baseColorTexture": {
          "index": 0,
          "texCoord": 0
        },
        "metallicFactor": 0,
        "roughnessFactor": 0
      }
    },
    {
      "alphaMode": "BLEND",
      "doubleSided": true,
      "name": "Marble",
      "pbrMetallicRoughness": {
        "baseColorFactor": [
          1,
          1,
          1,
          0.10000000000000001
        ],
        "baseColorTexture": {
          "index": 1,
          "texCoord": 0
        },
        "metallicFactor": 0,
        "roughnessFactor": 0
      }
    }
  ],
  "meshes": [
    {
      "primitives": [
        {
          "attributes": {
            "NORMAL": 1,
            "POSITION": 0,
            "TEXCOORD_0": 2
          },
          "indices": 3,
          "material": 0,
          "mode": 4
        }
      ]
    },
    {
      "primitives": [
        {
          "attributes": {
            "NORMAL": 5,
            "POSITION": 4,
            "TEXCOORD_0": 6
          },
          "indices": 7,
          "material": 1,
          "mode": 4
        }
      ]
    }
  ],
  "nodes": [
    {
      "children": [
        1
      ],
      "name": "RootNode (gltf orientation matrix)",
      "rotation": [
        -0.70710678118654746,
        -0,
        -0,
        0.70710678118654757
      ]
    },
    {
      "children": [
        2
      ],
      "name": "RootNode (model correction matrix)"
    },
    {
      "children": [
        3,
        4
      ],
      "name": "3dddc1836d004fa39beb2dc556ed42f9.obj.cleaner.materialmerger.gles"
    },
    {
      "mesh": 0,
      "name": ""
    },
    {
      "mesh": 1,
      "name": ""
    }
  ],
  "samplers": [
    {
      "magFilter": 9729,
      "minFilter": 9987,
      "wrapS": 10497,
      "wrapT": 10497
    }
  ],
  "scene": 0,
  "scenes": [
    {
      "name": "OSG_Scene",
      "nodes": [
        0
      ]
    }
  ],
  "textures": [
    {
      "sampler": 0,
      "source": 0
    },
    {
      "sampler": 0,
      "source": 1
    }
  ]
}

